<?xml version="1.0" encoding="UTF-8" standalone="no"?>
<!-- Created with Inkscape (http://www.inkscape.org/) -->

<svg
   xmlns:dc="http://purl.org/dc/elements/1.1/"
   xmlns:cc="http://creativecommons.org/ns#"
   xmlns:rdf="http://www.w3.org/1999/02/22-rdf-syntax-ns#"
   xmlns:svg="http://www.w3.org/2000/svg"
   xmlns="http://www.w3.org/2000/svg"
   xmlns:sodipodi="http://sodipodi.sourceforge.net/DTD/sodipodi-0.dtd"
   xmlns:inkscape="http://www.inkscape.org/namespaces/inkscape"
   width="45.127956mm"
   height="56.444447mm"
   viewBox="0 0 159.9022 200.00001"
   id="svg2"
   version="1.1"
   inkscape:version="0.91 r13725"
   sodipodi:docname="AD-troikas-200px.svg"
   inkscape:export-filename="/home/troikas/Εικόνες/My_Paint/MP4/AD_logo/AD-troikas.png"
   inkscape:export-xdpi="90"
   inkscape:export-ydpi="90">
  <defs
     id="defs4" />
  <sodipodi:namedview
     id="base"
     pagecolor="#ffffff"
     bordercolor="#666666"
     borderopacity="1.0"
     inkscape:pageopacity="0.0"
     inkscape:pageshadow="2"
     inkscape:zoom="0.5"
     inkscape:cx="76.918075"
     inkscape:cy="275.07952"
     inkscape:document-units="px"
     inkscape:current-layer="layer1"
     showgrid="false"
     showborder="true"
     inkscape:window-width="1024"
     inkscape:window-height="553"
     inkscape:window-x="0"
     inkscape:window-y="26"
     inkscape:window-maximized="1"
     fit-margin-top="0"
     fit-margin-left="0"
     fit-margin-right="0"
     fit-margin-bottom="0"
     inkscape:showpageshadow="false" />
  <metadata
     id="metadata7">
    <rdf:RDF>
      <cc:Work
         rdf:about="">
        <dc:format>image/svg+xml</dc:format>
        <dc:type
           rdf:resource="http://purl.org/dc/dcmitype/StillImage" />
        <dc:title></dc:title>
      </cc:Work>
    </rdf:RDF>
  </metadata>
  <g
     inkscape:label="Layer 1"
     inkscape:groupmode="layer"
     id="layer1"
     transform="translate(-173.7013,-586.08441)">
    <g
       id="g7144"
       transform="matrix(0.34468793,0,0,0.34468793,113.8286,506.04271)">
      <g
         transform="translate(47.530125,7.4800114)"
         id="g7061">
        <path
           style="font-style:normal;font-variant:normal;font-weight:normal;font-stretch:normal;font-size:medium;line-height:125%;font-family:'BABEL Unicode';-inkscape-font-specification:'BABEL Unicode';text-align:center;letter-spacing:0px;word-spacing:0px;text-anchor:middle;opacity:1;fill:#000000;fill-opacity:1;stroke:#ec0000;stroke-width:3.00000024;stroke-linecap:butt;stroke-linejoin:miter;stroke-miterlimit:4;stroke-dasharray:none;stroke-opacity:1"
           d="m 333.12319,292.83308 c -5.72789,1.53675 -15.1588,8.4521 -28.29102,20.74609 l -33.86523,98.42969 c 3.57998,-1.75739 7.21183,-3.51633 10.92188,-5.27539 4.50619,-2.13655 8.92722,-4.1511 13.30859,-6.11133 l 18.22656,-53.93164 0.83985,0 47.77734,120.91406 -35.50586,0 6.93164,19.06836 36.32812,0 30.59571,76.90821 c 1.39704,3.4926 2.51529,6.84538 3.35351,10.05859 0.97793,3.0735 1.4668,5.65834 1.4668,7.75391 0,3.0735 -2.30577,5.7969 -6.91602,8.17187 -4.61024,2.23527 -11.38508,3.35352 -20.32617,3.35352 -2.25832,0 -4.0926,0.34608 -5.50195,1.03711 l 4.79688,13.18945 c 7.6775,-0.0561 15.52084,-0.38645 23.54687,-1.02344 8.80139,-0.69852 17.39312,-1.04883 25.77539,-1.04883 2.51468,0 6.28509,0.14052 11.31445,0.41993 5.02937,0.1397 10.26833,0.3495 15.7168,0.6289 5.44847,0.27942 10.61815,0.55849 15.50781,0.83789 5.02936,0.13971 8.80173,0.20899 11.31641,0.20899 4.33084,0 6.49609,-1.74567 6.49609,-5.23828 0,-6.28671 -2.02669,-9.43164 -6.07812,-9.43164 -4.47054,0 -8.59126,-0.27908 -12.36328,-0.8379 -3.77203,-0.69852 -7.26337,-1.95533 -10.47657,-3.77148 -3.2132,-1.95587 -6.21763,-4.60998 -9.01171,-7.96289 -2.65439,-3.49261 -5.09872,-8.03291 -7.33399,-13.62109 L 333.12319,292.83308 Z m -71.51758,162.29687 c -0.56439,-0.01 -0.99762,0.0794 -1.48828,0.25782 -0.34391,0.12502 -1.60603,0.67863 -3.29492,1.56054 a 9.000899,9.000899 0 0 1 -0.53516,0.25586 c -0.33259,0.14664 -0.69164,0.31775 -1.0332,0.47266 l -37.80664,109.88672 c -1.53675,4.33084 -3.14386,7.96269 -4.82031,10.89648 -1.53675,2.9338 -3.42293,5.30885 -5.65821,7.125 -2.23527,1.81616 -4.95867,3.21348 -8.17187,4.19141 -3.21321,0.83823 -7.19536,1.46565 -11.94531,1.88476 -3.63232,0.27941 -6.425,0.55849 -8.38086,0.8379 -1.95586,0.1397 -3.4937,0.42073 -4.61133,0.83984 -0.97794,0.27941 -1.60535,0.69704 -1.88477,1.25586 -0.1397,0.55882 -0.21093,1.32871 -0.21093,2.30664 l 0,5.44726 c 0,3.21321 2.58483,4.82032 7.7539,4.82032 2.51468,0 5.7289,-0.0693 9.64063,-0.20899 4.05142,-0.2794 8.17214,-0.55847 12.36328,-0.83789 4.19114,-0.2794 8.24257,-0.4892 12.15429,-0.6289 3.91173,-0.27941 7.19523,-0.41993 9.84961,-0.41993 3.91173,0 8.59059,0.14052 14.03907,0.41993 5.58818,0.1397 11.03693,0.3495 16.3457,0.6289 l 13.83008,0.83789 c 1.95586,0.13971 3.56297,0.20899 4.82031,0.20899 l 2.51563,0 c 2.93379,0 4.40039,-2.16526 4.40039,-6.4961 0,-3.0735 -0.41959,-5.10019 -1.25782,-6.07812 -0.69852,-1.11764 -2.30563,-1.67578 -4.82031,-1.67578 -9.63961,0 -17.18238,-1.60711 -22.63086,-4.82032 -5.30877,-3.2132 -7.96289,-7.61299 -7.96289,-13.20117 l 0,-0.83789 c 0,-3.91172 0.69866,-8.80233 2.0957,-14.66992 1.53675,-6.00729 3.5615,-13.0612 6.07618,-21.16406 l 15.92578,-51.55274 12.62695,0 -4.50391,-12.39062 c -1.93692,-5.32803 -3.91635,-9.36546 -5.64648,-11.97461 a 9.000899,9.000899 0 0 1 -0.19141,-0.30078 c -1.79062,-2.94645 -3.43757,-4.6139 -4.35547,-5.25196 a 9.000899,9.000899 0 0 1 -0.47656,-0.35546 c -1.37894,-1.1005 -2.08836,-1.22157 -2.13476,-1.22657 -0.22419,-0.0259 -0.42711,-0.0397 -0.61524,-0.043 z"
           id="path4148"
           inkscape:connector-curvature="0" />
        <path
           style="font-style:normal;font-variant:normal;font-weight:normal;font-stretch:normal;font-size:medium;line-height:125%;font-family:'BABEL Unicode';-inkscape-font-specification:'BABEL Unicode';text-align:center;letter-spacing:0px;word-spacing:0px;text-anchor:middle;opacity:1;fill:#ff0000;fill-opacity:1;stroke:#000100;stroke-width:3.00000024;stroke-linecap:butt;stroke-linejoin:miter;stroke-miterlimit:4;stroke-dasharray:none;stroke-opacity:1"
           d="m 398.5021,380.21589 c -4.93917,-0.0161 -9.96935,0.29262 -15.08985,0.92774 -1.68141,0.1665 -3.37276,0.36895 -5.07422,0.60742 l 6.25,15.74805 c 4.80809,-0.18715 9.43262,-0.0349 13.86133,0.47656 23.2742,5.95802 43.54695,17.76343 60.81641,35.41797 17.26946,17.65454 31.1063,40.79313 41.51172,69.41601 l 0.57226,1.57617 c 7.44608,20.48244 11.34863,39.80077 11.70508,57.95508 0.30872,18.02304 -2.08008,34.3516 -7.16601,48.98438 -5.13368,14.50149 -12.5362,26.85438 -22.20508,37.05859 -9.53758,10.15648 -20.54235,17.50069 -33.01563,22.03516 -9.58472,3.48438 -18.08395,5.45899 -25.49609,5.92382 -7.41215,0.46483 -14.00086,-0.48386 -19.76563,-2.84765 -5.63346,-2.41153 -10.48504,-6.14786 -14.55468,-11.20899 -3.98608,-5.24015 -7.40957,-11.79987 -10.27344,-19.67773 L 310.34194,449.40339 c -2.05248,-5.6458 -3.06724,-10.4796 -3.04297,-14.50195 -0.0235,-4.15365 1.11605,-7.7628 3.41992,-10.83008 2.38744,-3.24632 5.9338,-6.17186 10.63672,-8.77344 2.4641,-1.3504 5.29772,-2.7163 8.48438,-4.09765 l -5.28321,-13.37305 c -0.26191,0.10814 -0.48333,0.19296 -0.74804,0.30273 -5.81293,2.41051 -11.92987,5.0047 -18.35157,7.78516 -6.42168,2.78045 -12.99277,5.76493 -19.71289,8.95117 -6.72012,3.18625 -13.21955,6.36667 -19.49804,9.54102 -6.2785,3.17434 -12.20503,6.29433 -17.7793,9.36133 -5.44298,3.01926 -10.13887,5.84129 -14.08984,8.46679 -2.73346,1.88561 -3.60002,4.20759 -2.59766,6.96485 1.33647,3.67633 2.55438,6.20715 3.65234,7.59179 1.18168,-0.42958 2.79853,-1.09133 4.85157,-1.98632 2.0053,-1.0263 4.10083,-2.01236 6.28515,-2.95508 2.1366,-1.07404 4.16616,-2.0336 6.08789,-2.88086 1.874,-0.97857 3.33634,-1.65917 4.38672,-2.04102 1.96947,-0.71597 4.03865,-0.94811 6.21094,-0.69726 2.17229,0.25084 4.4114,1.2945 6.71484,3.13281 2.387,1.65928 4.69043,4.31621 6.91016,7.96875 2.30329,3.47352 4.50529,8.0979 6.60547,13.875 l 72.02539,198.12891 c 1.71833,4.72672 2.70286,9.27406 2.95312,13.64257 0.33383,4.18948 -0.31194,8.13968 -1.93554,11.85157 -1.54003,3.53284 -4.21371,6.80871 -8.02149,9.82812 -3.67647,2.97167 -8.66451,5.60343 -14.96679,7.89453 -3.01985,1.09782 -3.57527,4.27349 -1.66602,9.52539 0.47731,1.31297 0.92411,2.33807 1.3418,3.07813 0.36995,0.60876 1.05608,1.4756 2.05859,2.59765 l 6.89258,-2.50585 c 2.84081,-1.18139 5.94454,-2.45972 9.31055,-3.83204 3.36601,-1.3723 6.86359,-2.79199 10.49218,-4.25976 3.6286,-1.46778 7.06021,-2.86292 10.29493,-4.1875 3.23471,-1.32458 6.09909,-2.44076 8.59374,-3.34766 2.57823,-1.08592 4.45895,-1.84386 5.64063,-2.27344 1.96946,-0.71597 4.68501,-1.62856 8.14648,-2.73828 3.54504,-1.28874 7.44216,-2.63124 11.69141,-4.02734 4.24926,-1.39611 8.69474,-2.86305 13.33789,-4.40234 4.77444,-1.58703 9.35187,-3.10304 13.73242,-4.54688 4.38056,-1.44383 8.36817,-2.7449 11.96094,-3.90234 l 8.46875,-3.07813 0.78711,-0.28711 c 11.16029,-4.05716 21.7546,-9.46964 31.78125,-16.23633 10.15794,-6.8144 19.28932,-14.81605 27.39453,-24.00585 8.1052,-9.18981 14.94453,-19.40546 20.51953,-30.64844 5.70631,-11.29072 9.75426,-23.46593 12.14258,-36.52344 2.34059,-13.18881 2.84894,-27.12359 1.52539,-41.80469 -1.19226,-14.72883 -4.70022,-30.10082 -10.52344,-46.11914 l -0.42968,-1.18359 c -5.34591,-14.70534 -12.07053,-28.09043 -20.17383,-40.1582 -8.1033,-12.06779 -17.11343,-22.54274 -27.03125,-31.42383 -9.78652,-8.92882 -20.32452,-16.24682 -31.61524,-21.95313 -11.29072,-5.7063 -22.84591,-9.68079 -34.66211,-11.92578 -6.83908,-1.23 -13.55209,-1.91109 -20.14062,-2.04297 -1.62624,-0.0777 -3.26182,-0.11963 -4.9082,-0.125 z"
           id="path4150"
           inkscape:connector-curvature="0" />
      </g>
    </g>
    <path
       style="fill:none;stroke:none;stroke-width:4.89330339;stroke-linecap:round;stroke-linejoin:round;stroke-miterlimit:4;stroke-dasharray:none;stroke-opacity:1"
       d="M 399.85357,828.80099 A 299.05334,301.05334 89.599622 0 1 96.717829,531.85866 299.05334,301.05334 89.599622 0 1 395.67409,230.7089 299.05334,301.05334 89.599622 0 1 698.80982,527.65122 299.05334,301.05334 89.599622 0 1 399.85357,828.80099 Z"
       id="path7069"
       inkscape:connector-curvature="0" />
    <g
       id="text7080"
       style="font-style:normal;font-variant:normal;font-weight:bold;font-stretch:normal;font-size:60.00000381px;line-height:125%;font-family:Georgia;-inkscape-font-specification:'Georgia, Bold';text-align:center;letter-spacing:0px;word-spacing:0px;writing-mode:lr-tb;text-anchor:middle;fill:#ff0000;fill-opacity:1;stroke:#000100;stroke-width:3.00000024;stroke-linecap:butt;stroke-linejoin:miter;stroke-miterlimit:4;stroke-dasharray:none;stroke-opacity:1"
       transform="matrix(0.34468793,0,0,0.34468793,113.8286,530.98619)">
      <path
         inkscape:connector-curvature="0"
         id="path7054"
         style="fill:#ff0000;fill-opacity:1;stroke:#000100;stroke-width:3.00000024;stroke-miterlimit:4;stroke-dasharray:none;stroke-opacity:1"
         d="m 279.82796,197.90002 -2.05702,0.92605 q -1.92257,-2.05821 -5.01664,-4.00669 -3.06736,-1.96051 -4.71302,-1.47668 -0.90297,0.27799 -2.19463,0.76309 -1.29167,0.48511 -2.19996,0.89401 l -1.25559,0.56525 13.38558,29.73332 q 0.43296,0.96173 1.11699,1.55339 0.67201,0.56495 1.87959,0.53537 0.72267,-0.0362 2.12524,-0.34631 1.41725,-0.34887 2.37365,-0.65091 l 0.93807,2.08373 -21.13122,9.51302 -0.93808,-2.08373 q 0.73865,-0.42892 2.06767,-1.18787 1.34371,-0.7977 1.75508,-1.23992 0.84944,-0.89647 0.87201,-1.77411 0.0226,-0.87764 -0.42241,-1.86608 l -13.50584,-30.00046 -1.25559,0.56525 q -0.90829,0.4089 -2.1278,1.05429 -1.2195,0.6454 -2.02626,1.1371 -1.45324,0.91126 -2.04578,4.51941 -0.56582,3.59612 -0.29956,6.39997 l -2.05702,0.92605 -4.88279,-10.84612 36.73254,-16.53654 4.88279,10.84612 z" />
      <path
         inkscape:connector-curvature="0"
         id="path7056"
         style="fill:#ff0000;fill-opacity:1;stroke:#000100;stroke-width:3.00000024;stroke-miterlimit:4;stroke-dasharray:none;stroke-opacity:1"
         d="m 340.1972,211.04101 -15.33824,4.32923 q -5.6945,-4.96809 -9.3635,-7.82902 -3.6408,-2.86889 -8.89692,-6.49952 l -1.55074,0.4377 3.42996,12.15217 q 0.2865,1.01504 0.85199,1.61646 0.59369,0.59347 1.8004,0.77038 0.59937,0.0744 1.79881,0.01 1.21967,-0.10072 2.06121,-0.24692 l 0.62073,2.19923 -21.34384,6.02432 -0.62073,-2.19924 q 0.79378,-0.31537 2.07917,-0.83038 1.30563,-0.55116 1.80587,-0.93589 0.94409,-0.75353 1.11963,-1.53367 0.16759,-0.80834 -0.13482,-1.87976 l -7.9661,-28.2235 q -0.2865,-1.01503 -0.78764,-1.60418 -0.50114,-0.58914 -1.82859,-0.76242 -1.00571,-0.11187 -2.31793,-0.0155 -1.28402,0.0884 -2.02073,0.17461 l -0.62074,-2.19923 22.44346,-6.33469 q 7.52815,-2.12482 12.08758,-0.85464 4.57967,1.23403 5.9246,5.99903 1.18576,4.2011 -0.51484,7.45128 -1.68037,3.21402 -6.20868,6.04465 2.6176,1.94003 6.07832,4.49446 3.48892,2.54646 7.21499,5.17819 1.18442,0.85292 3.13239,2.03827 1.9682,1.14919 3.22766,1.18945 0.7042,0.0143 1.73083,-0.12323 1.05482,-0.14552 1.48571,-0.23669 l 0.62073,2.19923 z m -27.59684,-24.32654 q -1.13006,-4.00374 -3.90296,-5.19978 -2.75266,-1.2322 -6.89737,-0.0624 l -2.22743,0.62869 4.72714,16.74801 2.14284,-0.60482 q 4.14471,-1.16984 5.81575,-3.98549 1.67104,-2.81565 0.34203,-7.52426 z" />
      <path
         inkscape:connector-curvature="0"
         id="path7058"
         style="fill:#ff0000;fill-opacity:1;stroke:#000100;stroke-width:3.00000024;stroke-miterlimit:4;stroke-dasharray:none;stroke-opacity:1"
         d="m 374.37926,170.18599 q 3.37705,2.44305 5.60722,6.19743 2.25926,3.75104 2.84105,8.81538 0.51826,4.51135 -0.52712,8.75998 -1.04538,4.24863 -3.56001,7.51595 -2.64678,3.40047 -6.49517,5.58245 -3.85173,2.15288 -9.43997,2.79485 -4.51135,0.51826 -8.69843,-0.5047 -4.18707,-1.02297 -7.56747,-3.49512 -3.34461,-2.41728 -5.57477,-6.17166 -2.23017,-3.75438 -2.78855,-8.61499 -0.58179,-5.06435 0.66399,-9.36549 1.27153,-4.33359 3.9608,-7.62098 2.66684,-3.22583 6.5935,-5.23987 3.95242,-2.04648 8.60929,-2.58146 4.62777,-0.53163 8.84729,0.51709 4.24863,1.04538 7.52835,3.41114 z m -4.08635,30.40134 q 1.00548,-2.79906 1.20307,-6.21306 0.1976,-3.414 -0.28723,-7.63429 -0.41126,-3.57997 -1.32301,-6.89601 -0.886,-3.3485 -2.4127,-5.85667 -1.5558,-2.50482 -3.80618,-3.86822 -2.25039,-1.36341 -5.33557,-1.00898 -5.26808,0.60519 -7.4289,5.92562 -2.16415,5.29134 -1.1176,14.40134 0.44469,3.87103 1.42135,7.2386 1.00576,3.36423 2.58064,5.77839 1.60732,2.43992 3.78278,3.66448 2.17211,1.19546 5.11176,0.85776 2.88144,-0.33102 4.78075,-2.02369 1.8993,-1.69266 2.83084,-4.36527 z" />
      <path
         inkscape:connector-curvature="0"
         id="path7060"
         style="fill:#ff0000;fill-opacity:1;stroke:#000100;stroke-width:3.00000024;stroke-miterlimit:4;stroke-dasharray:none;stroke-opacity:1"
         d="m 407.62743,206.70725 -18.51562,-0.0113 0.001,-2.13867 q 0.76175,-0.0581 1.49423,-0.14558 0.73247,-0.0874 1.25994,-0.2922 0.93772,-0.35099 1.31897,-0.99529 0.38127,-0.6736 0.38193,-1.75758 l 0.0104,-17.05078 q 6.3e-4,-1.02539 -0.46766,-1.78739 -0.46827,-0.7913 -1.17111,-1.26048 -0.52713,-0.35189 -1.61092,-0.67481 -1.05449,-0.32291 -1.93334,-0.41133 l 0.001,-2.13868 14.35593,-0.75298 0.43919,0.43972 -0.0142,23.26172 q -6.2e-4,1.02539 0.43838,1.75808 0.43903,0.70339 1.25913,1.05545 0.58578,0.26403 1.28878,0.46954 0.703,0.2055 1.46466,0.29386 l -0.001,2.13867 z m -4.25303,-39.96354 q -10e-4,2.22656 -1.73083,3.80754 -1.70016,1.5517 -4.04391,1.55028 -2.37305,-0.001 -4.10062,-1.55523 -1.69826,-1.58307 -1.6969,-3.80963 10e-4,-2.22656 1.70154,-3.80756 1.72947,-1.58098 4.10252,-1.57953 2.37305,0.001 4.0713,1.5845 1.69826,1.58307 1.6969,3.80963 z" />
      <path
         inkscape:connector-curvature="0"
         id="path7062"
         style="fill:#ff0000;fill-opacity:1;stroke:#000100;stroke-width:3.00000024;stroke-miterlimit:4;stroke-dasharray:none;stroke-opacity:1"
         d="m 459.2297,211.76381 -16.35525,-1.89653 q -3.03789,-6.10345 -5.5642,-10.26 -2.52632,-4.15656 -6.48534,-10.45529 l -1.5133,-0.17548 -1.50508,12.97943 q -0.12148,1.04767 0.17247,1.81909 0.29396,0.77141 1.37157,1.39775 0.49683,0.29356 1.4884,0.64449 1.02067,0.3543 2.02574,0.58882 l -0.26322,2.26995 -21.94281,-2.54447 0.26322,-2.26994 q 0.7925,0.0329 2.23199,0.0819 1.46859,0.0523 2.07763,-0.113 1.09491,-0.28594 1.5867,-0.96625 0.49179,-0.6803 0.62003,-1.78617 l 3.39486,-29.27648 q 0.11812,-1.01857 -0.15012,-1.75751 -0.26823,-0.73894 -1.36818,-1.42686 -0.85492,-0.51204 -2.10503,-0.92244 -1.25011,-0.4104 -2.02574,-0.58882 l 0.26323,-2.26994 22.67035,2.62883 -0.26322,2.26994 q -0.91228,-0.0173 -2.21301,0.009 -1.26825,4e-4 -2.20416,0.18681 -1.17884,0.24671 -1.65165,1.01769 -0.47282,0.77099 -0.58755,1.76045 l -1.61307,13.91069 1.22228,0.14174 q 2.50954,-1.80301 5.8736,-4.36224 3.36405,-2.55923 5.23884,-4.22939 2.62849,-2.3201 3.88074,-3.70854 1.28135,-1.38506 1.40958,-2.49093 0.0574,-0.49473 -0.95992,-0.87813 -1.0173,-0.38341 -3.15734,-0.74954 l 0.26322,-2.26994 17.95585,2.08214 -0.26322,2.26994 q -3.2999,-0.0287 -5.60951,0.55875 -2.30623,0.55838 -4.71497,2.25511 -3.43786,2.4327 -5.71459,4.26271 -2.24425,1.80428 -5.78757,4.63765 2.39895,3.72888 5.75402,9.13178 3.35844,5.37379 6.71478,10.51139 0.8511,1.30791 2.00335,2.56226 1.15562,1.22526 2.6204,2.07345 0.69043,0.40449 1.60144,0.68709 0.91101,0.2826 1.57698,0.38932 l -0.26322,2.26994 z" />
      <path
         inkscape:connector-curvature="0"
         id="path7064"
         style="fill:#ff0000;fill-opacity:1;stroke:#000100;stroke-width:3.00000024;stroke-miterlimit:4;stroke-dasharray:none;stroke-opacity:1"
         d="m 502.84227,224.3578 -21.81366,-6.08502 0.61402,-2.20112 q 1.55534,0.3122 3.73344,0.46356 2.18597,0.12315 2.36703,-0.5259 0.063,-0.22576 0.0852,-0.5237 0.0505,-0.29006 -0.0132,-0.8249 l -1.1002,-9.24903 -13.82755,-3.85726 q -0.80248,1.02317 -1.82805,2.40993 -0.99735,1.39463 -1.75913,2.48999 -0.977,1.43073 -1.28668,2.10473 -0.28146,0.68187 -0.36018,0.96406 -0.2519,0.90303 0.92158,1.92993 1.20957,1.00655 4.31966,2.17828 l -0.61402,2.20112 -16.42374,-4.58148 0.61402,-2.20112 q 0.94698,0.20333 2.16696,0.30033 1.25606,0.0767 2.05141,-0.15772 1.34593,-0.35452 2.41159,-1.12178 1.09388,-0.7594 2.00791,-1.96437 5.48548,-7.01652 10.97883,-14.06127 5.52157,-7.03688 12.17699,-15.52156 l 5.64389,1.5744 q 1.73674,15.14469 2.66495,23.91993 0.92822,8.77525 1.6809,14.58165 0.13069,0.94892 0.49828,1.81184 0.37546,0.83471 1.2464,1.7468 0.6642,0.67193 1.64534,1.18894 0.98115,0.51702 1.81199,0.80962 l -0.61402,2.20112 z m -16.50501,-22.06259 -1.76702,-16.12644 -9.77475,12.90681 11.54177,3.21963 z" />
      <path
         inkscape:connector-curvature="0"
         id="path7066"
         style="fill:#ff0000;fill-opacity:1;stroke:#000100;stroke-width:3.00000024;stroke-miterlimit:4;stroke-dasharray:none;stroke-opacity:1"
         d="m 518.59637,232.96909 q -3.48906,-1.52703 -6.14598,-3.71322 -2.63008,-2.17444 -4.20667,-4.27157 l -2.67414,1.06823 -2.28131,-0.99845 5.67699,-13.92108 2.30815,1.01019 q -0.0792,2.29988 0.17714,5.00243 0.25629,2.70254 1.08802,5.11327 0.85017,2.51474 2.36975,4.52295 1.54641,2.01996 4.25714,3.20635 3.6501,1.59751 6.35777,0.67188 2.74625,-0.94073 3.93263,-3.65146 0.97495,-2.22764 -0.0313,-4.45889 -0.96763,-2.24635 -3.94825,-4.86203 -1.93732,-1.71135 -3.57272,-3.16264 -1.60856,-1.43954 -2.99066,-2.81195 -3.16843,-3.20956 -3.80204,-6.87673 -0.60677,-3.65543 0.93201,-7.17134 0.97495,-2.22763 2.83387,-3.84452 1.87068,-1.64373 4.43909,-2.4704 2.44092,-0.75456 5.6282,-0.51089 3.18728,0.24368 6.4348,1.66499 3.16699,1.38607 5.54377,3.48163 2.38853,2.06873 3.5844,3.64745 l 2.34196,-0.89381 2.33499,1.02194 -5.47054,13.08402 -2.30815,-1.01019 q 0.11105,-2.44583 -0.0379,-5.10138 -0.11035,-2.67065 -0.6838,-4.64854 -0.63382,-2.13224 -1.95214,-3.79653 -1.30657,-1.69113 -3.61472,-2.70132 -2.8986,-1.26861 -5.46702,-0.44193 -2.54158,0.83842 -3.59875,3.25393 -0.99845,2.28131 -0.0493,4.42365 0.97603,2.15408 3.87614,4.73452 1.69242,1.54021 3.46536,3.11566 1.77294,1.57544 3.11311,2.89752 3.23385,3.20621 4.08388,6.74424 0.88861,3.52295 -0.82636,7.44143 -1.08066,2.46919 -3.24493,4.27224 -2.16426,1.80306 -4.79305,2.47539 -2.88714,0.75115 -6.10461,0.4303 -3.21746,-0.32085 -6.97492,-1.96534 z" />
    </g>
    <path
       inkscape:connector-curvature="0"
       id="path7124"
       d="m 168.94829,722.30715 a 301.05334,299.05334 49.918814 0 0 422.6555,37.7936 301.05334,299.05334 49.918814 0 0 34.97558,-422.89801 301.05334,299.05334 49.918814 0 0 -422.65548,-37.79361 301.05334,299.05334 49.918814 0 0 -34.9756,422.89802 z"
       style="fill:none;stroke:none;stroke-width:4.89330339;stroke-linecap:round;stroke-linejoin:round;stroke-miterlimit:4;stroke-dasharray:none;stroke-opacity:1" />
    <g
       id="text7134"
       style="font-style:normal;font-variant:normal;font-weight:bold;font-stretch:normal;font-size:60.00000381px;line-height:125%;font-family:Georgia;-inkscape-font-specification:'Georgia, Bold';text-align:start;letter-spacing:0px;word-spacing:0px;writing-mode:lr-tb;text-anchor:start;fill:#000000;fill-opacity:1;stroke:#f20000;stroke-width:3;stroke-linecap:butt;stroke-linejoin:miter;stroke-miterlimit:4;stroke-dasharray:none;stroke-opacity:1"
       transform="matrix(0.34468793,0,0,0.34468793,115.92464,507.54747)">
      <path
         inkscape:connector-curvature="0"
         id="path7070"
         style="fill:#000000;fill-opacity:1;stroke:#f20000;stroke-width:3;stroke-miterlimit:4;stroke-dasharray:none;stroke-opacity:1"
         d="m 209.03558,713.26259 q 0.38802,2.24204 -0.19729,4.45193 -0.56436,2.18943 -2.45056,4.03185 -2.26344,2.21092 -4.77695,2.78222 -2.47209,0.57178 -5.11335,-0.32936 -2.80648,-0.94451 -5.62031,-3.02858 -2.79335,-2.0631 -6.0483,-5.39538 l -15.08744,-15.44588 1.63471,-1.59677 q 0.69749,0.58827 1.78539,1.45046 1.0879,0.86219 1.64452,1.09661 1.07181,0.46837 1.84093,0.24951 0.81054,-0.21838 1.62789,-1.01676 l 20.95778,-20.47142 q 0.75448,-0.73697 1.03228,-1.45882 0.2778,-0.72185 -0.20476,-1.97056 -0.36216,-0.91582 -1.03383,-1.93886 -0.65071,-1.04351 -1.18053,-1.79556 l 1.63471,-1.59677 15.78345,16.15845 q 5.95719,6.09871 6.92138,10.43997 0.96419,4.34127 -2.30523,7.53481 -1.50896,1.47394 -3.2553,1.99209 -1.7254,0.49769 -3.66916,0.18482 -1.77854,-0.26949 -3.73646,-1.14189 -1.95791,-0.8724 -3.93192,-2.13862 l -0.3982,0.38896 q 1.42911,1.79848 2.58285,4.11166 1.17469,2.29271 1.5637,4.45189 z m 2.35717,-15.4897 q 2.47302,-2.41562 2.48465,-5.17091 0.0321,-2.73433 -2.6906,-5.52171 -0.38896,-0.3982 -1.06549,-1.00694 -0.6351,-0.60827 -1.10643,-1.04887 l -11.02379,10.76797 1.06452,1.0898 q 3.31637,3.39516 6.4645,3.47355 3.16909,0.0579 5.87264,-2.58289 z m -12.83925,15.40808 q 3.10176,-3.02977 2.95594,-6.4913 -0.14583,-3.46152 -3.52361,-6.91956 -0.38896,-0.39819 -1.08596,-1.0279 -0.65557,-0.62922 -0.9836,-0.92311 l -10.87708,10.62466 q -0.5912,0.94606 -0.17394,2.46333 0.43821,1.4968 1.8098,2.90098 2.43609,2.49397 5.6276,2.40713 3.21198,-0.0659 6.25085,-3.03423 z" />
      <path
         inkscape:connector-curvature="0"
         id="path7072"
         style="fill:#000000;fill-opacity:1;stroke:#f20000;stroke-width:3;stroke-miterlimit:4;stroke-dasharray:none;stroke-opacity:1"
         d="m 240.98067,730.39049 q 0.47598,2.92574 -0.34308,5.84889 -0.81906,2.92314 -2.82844,5.51717 -1.99145,2.57086 -4.67088,4.1641 -2.63833,1.58801 -5.60811,1.88164 -3.17529,0.31974 -6.44063,-0.72733 -3.24218,-1.02913 -6.50787,-3.55881 -2.82563,-2.1888 -4.58327,-4.84735 -1.73449,-2.64061 -2.30833,-5.67921 -0.55819,-2.9153 0.18095,-5.97447 0.75707,-3.08234 2.94587,-5.90797 2.15292,-2.77931 4.70154,-4.25152 2.58973,-1.47743 5.68281,-1.78672 2.96978,-0.29364 6.15292,0.76387 3.22423,1.05229 6.3278,3.45638 3.24253,2.51174 4.99789,5.31676 1.79646,2.7998 2.30083,5.78457 z m -18.36229,11.45764 q 1.51423,-0.90231 3.18112,-2.57578 1.69005,-1.65552 3.59179,-4.11058 1.25587,-1.62126 2.63894,-3.88516 1.38308,-2.26389 1.85279,-3.82708 0.57442,-1.88972 0.22438,-3.49497 -0.32689,-1.58732 -1.83235,-2.75348 -1.64442,-1.27381 -3.34004,-1.14199 -1.67246,0.14975 -3.3175,1.17309 -1.50901,0.94341 -3.07576,2.58327 -1.5488,1.61671 -3.0379,3.53906 -1.95556,2.52454 -3.08519,4.31772 -1.11168,1.77001 -1.77808,3.922 -0.57964,1.84862 -0.2296,3.45388 0.35005,1.60525 1.87867,2.78936 1.38966,1.07646 2.97763,1.08361 1.60591,-0.016 3.3511,-1.07295 z" />
      <path
         inkscape:connector-curvature="0"
         id="path7074"
         style="fill:#000000;fill-opacity:1;stroke:#f20000;stroke-width:3;stroke-miterlimit:4;stroke-dasharray:none;stroke-opacity:1"
         d="m 265.00295,774.19633 -12.89671,-6.55801 -0.17228,-0.5759 1.36067,-2.32665 -0.14745,-0.15411 q -2.02306,0.61565 -4.73898,0.38488 -2.67585,-0.24126 -4.82547,-1.4984 -5.10851,-2.98756 -6.20297,-8.71848 -1.09446,-5.73093 2.42554,-11.74986 3.12066,-5.33612 9.04622,-6.99553 5.95085,-1.64462 11.2111,1.43167 2.07375,1.21278 3.6136,2.75815 1.55464,1.52009 2.27234,2.78829 l 4.8363,-8.26971 q 0.54722,-0.93572 0.64115,-1.96684 0.10873,-1.0564 -0.2573,-1.88136 -0.4586,-1.01486 -1.5141,-1.93759 -1.01543,-0.93323 -2.14488,-1.72952 l 1.07966,-1.84614 14.04095,7.32901 0.1427,0.62648 -19.38954,33.15473 q -0.56202,0.961 -0.64308,1.79601 -0.0558,0.8498 0.43049,1.64326 0.36839,0.58878 1.30603,1.30682 0.96293,0.73283 1.60567,1.14266 l -1.07966,1.84614 z m -10.26512,-12.0444 8.35628,-14.28865 q 0.16314,-0.68519 0.2485,-1.58557 0.11064,-0.88558 -0.076,-1.8432 -0.1952,-0.82688 -0.81841,-1.73437 -0.59792,-0.8927 -1.66009,-1.51388 -2.52896,-1.47899 -5.81876,0.43219 -3.28979,1.91118 -6.33651,7.12084 -1.19798,2.04846 -1.88114,3.85498 -0.64307,1.79602 -0.69354,3.56527 -0.0505,1.76926 0.64387,3.1935 0.71963,1.43902 2.33817,2.38557 1.54267,0.90219 2.89442,0.91212 1.36654,-0.0154 2.8032,-0.4988 z" />
      <path
         inkscape:connector-curvature="0"
         id="path7076"
         style="fill:#000000;fill-opacity:1;stroke:#f20000;stroke-width:3;stroke-miterlimit:4;stroke-dasharray:none;stroke-opacity:1"
         d="m 307.66173,763.75339 q -1.29196,-0.33314 -2.76187,-0.10496 -1.44301,0.23977 -2.85698,1.449 -4.42319,3.9005 -9.25906,8.38884 -4.82428,4.46142 -10.58072,9.60592 -3.22116,2.88708 -5.7089,4.36752 -2.48773,1.48044 -4.35832,2.04643 -1.75511,0.52003 -3.22835,0.45969 -1.47325,-0.0603 -2.7648,-0.61661 -2.5562,-1.10094 -3.52953,-3.21077 -0.94642,-2.09824 -0.18156,-3.87413 0.32449,-0.7534 0.76407,-1.32965 0.46648,-0.56465 1.33284,-1.02088 0.68547,-0.40654 1.75884,-0.45462 1.08868,-0.01 2.21879,0.47714 1.50681,0.64897 2.42713,2.28939 0.92031,1.64041 1.60058,4.13441 1.27038,-0.50552 3.32679,-1.72514 2.07174,-1.18113 3.49023,-2.77119 -0.30477,-8.10591 -0.65949,-14.09613 -0.34314,-6.01713 -0.7915,-13.41932 -0.11642,-1.58127 -0.94522,-2.76759 -0.81721,-1.21323 -2.01233,-1.91935 l 0.84599,-1.96424 16.4673,7.09236 -0.84598,1.96424 q -0.92644,-0.36712 -2.29951,-0.51191 -1.34617,-0.1332 -1.60113,0.45876 -0.0927,0.21526 -0.12787,0.5191 -0.0236,0.27693 -0.0169,0.85397 0.10363,2.27754 0.32329,6.35947 0.25815,4.0666 0.55613,9.52201 3.31387,-3.10234 5.65294,-5.34858 2.37757,-2.26155 4.62807,-4.45023 0.55879,-0.5568 0.74794,-0.92191 0.22765,-0.38044 0.28559,-0.51497 0.2086,-0.48434 -0.12507,-1.04273 -0.29519,-0.57371 -0.82507,-1.12092 -0.5568,-0.55879 -1.11773,-0.95987 -0.56092,-0.40108 -0.94135,-0.62873 l 0.84598,-1.96424 11.11274,4.78619 -0.84598,1.96423 z" />
      <path
         inkscape:connector-curvature="0"
         id="path7078"
         style="fill:#000000;fill-opacity:1;stroke:#f20000;stroke-width:3;stroke-miterlimit:4;stroke-dasharray:none;stroke-opacity:1"
         d="m 368.28696,805.6707 -22.08738,-4.44037 0.45039,-2.24033 q 0.99388,0.11016 2.44168,0.19204 1.47653,0.0876 2.03973,-0.0382 1.14933,-0.21719 1.75902,-0.87158 0.60968,-0.65439 0.84065,-1.80327 l 6.12066,-30.44555 -21.21688,32.99879 -3.619,-0.72755 q -0.0679,-0.99981 -0.53607,-4.02245 -0.43941,-3.01688 -0.73062,-4.83852 l -4.68142,-30.0771 -4.98314,24.78727 q -0.716,3.56155 -0.63177,5.52089 0.11873,1.93638 1.00822,3.01169 0.5968,0.74752 2.32531,1.66279 1.75723,0.92105 2.48669,1.15735 l -0.45039,2.24033 -17.52055,-3.52227 0.45039,-2.24033 q 0.73538,0.0582 2.40156,0.0943 1.70069,0.0132 2.88482,-0.52572 1.31056,-0.57325 2.09377,-2.38808 0.78898,-1.84355 1.49921,-5.37638 l 4.05927,-20.19172 q 0.36955,-1.83822 0.15251,-3.13694 -0.21126,-1.32744 -0.98602,-2.23027 -0.96989,-1.12136 -2.12425,-1.62238 -1.15437,-0.50101 -2.3721,-0.83547 l 0.45039,-2.24033 18.7556,3.77056 4.64234,28.93368 12.86723,-20.15421 q 0.67335,-1.11972 1.41036,-2.70477 0.73702,-1.58505 0.86968,-2.09627 l 18.06627,3.63197 -0.45039,2.24034 q -0.93066,-0.12733 -1.97058,-0.1571 -1.03992,-0.0298 -2.01678,0.0727 -1.19523,0.1482 -1.73029,0.87736 -0.50635,0.73493 -0.70267,1.71148 l -5.80308,28.86583 q -0.20787,1.034 -0.008,1.82134 0.23481,0.7644 1.25104,1.50659 0.52247,0.37399 1.76878,0.86361 1.27503,0.49539 1.97576,0.72591 l -0.45039,2.24033 z" />
      <path
         inkscape:connector-curvature="0"
         id="path7080"
         style="fill:#000000;fill-opacity:1;stroke:#f20000;stroke-width:3;stroke-miterlimit:4;stroke-dasharray:none;stroke-opacity:1"
         d="m 390.91689,806.00735 -18.48048,-1.14025 0.13171,-2.13462 q 0.76388,-0.0116 1.50032,-0.0542 0.73645,-0.0426 1.27542,-0.21483 0.95737,-0.29316 1.3772,-0.91301 0.42163,-0.6491 0.48839,-1.73103 L 378.2595,782.801 q 0.0632,-1.02345 -0.35781,-1.81259 -0.41914,-0.81838 -1.09206,-1.32954 -0.5047,-0.38337 -1.56678,-0.77178 -1.03284,-0.38661 -1.90466,-0.52846 l 0.1317,-2.13461 14.37514,0.12379 0.41155,0.46568 -1.43254,23.21757 q -0.0632,1.02344 0.33037,1.78154 0.39532,0.72885 1.19242,1.13026 0.56859,0.29926 1.25775,0.54725 0.68916,0.24799 1.44402,0.38262 l -0.13171,2.13461 z m -1.80828,-40.1485 q -0.13712,2.22234 -1.95978,3.69492 -1.79162,1.44514 -4.13092,1.3008 -2.36855,-0.14614 -3.99816,-1.80237 -1.59856,-1.68368 -1.46144,-3.90601 0.13712,-2.22234 1.93054,-3.69672 1.82266,-1.47258 4.1912,-1.32644 2.36854,0.14614 3.96711,1.82981 1.59857,1.68367 1.46145,3.90601 z" />
      <path
         inkscape:connector-curvature="0"
         id="path7082"
         style="fill:#000000;fill-opacity:1;stroke:#f20000;stroke-width:3;stroke-miterlimit:4;stroke-dasharray:none;stroke-opacity:1"
         d="m 432.2692,804.88726 -17.62095,0.74569 -0.0904,-2.13676 q 0.55366,-0.0821 1.34025,-0.20333 0.7866,-0.12126 1.18771,-0.3435 0.60106,-0.34799 0.83849,-0.97382 0.23742,-0.62583 0.18663,-1.82593 l -0.57971,-13.69868 q -0.12634,-2.98561 -1.3018,-4.43134 -1.14743,-1.47624 -3.28419,-1.38582 -1.17083,0.0495 -2.18044,0.44415 -0.98033,0.39336 -1.91778,1.10747 -0.82407,0.62133 -1.32493,1.25831 -0.47159,0.63575 -0.80302,1.11894 l 0.66518,15.71836 q 0.0433,1.02447 0.36579,1.71458 0.3212,0.66084 1.00929,0.9836 0.47948,0.24361 1.19064,0.41878 0.71117,0.17516 1.38811,0.23449 l 0.0904,2.13676 -17.79658,0.75312 -0.0904,-2.13676 q 0.72929,-0.0895 1.45734,-0.20828 0.75608,-0.14929 1.27552,-0.34721 0.92304,-0.36162 1.2458,-1.04971 0.32275,-0.68809 0.27692,-1.7711 l -0.72092,-17.03554 q -0.0384,-0.90739 -0.54389,-1.76569 -0.50549,-0.8583 -1.29006,-1.38224 -0.54174,-0.32895 -1.37123,-0.52843 -0.80022,-0.20072 -1.76987,-0.24766 l -0.0904,-2.13676 13.92991,-1.35189 0.45764,0.42048 0.17961,4.24424 0.11708,-0.005 q 0.78861,-0.76645 1.91609,-1.84047 1.12747,-1.07402 2.09542,-1.7601 1.05329,-0.74832 2.78847,-1.32025 1.73518,-0.57192 3.72559,-0.65615 4.77112,-0.20191 7.25724,2.41993 2.51416,2.59133 2.70368,7.06974 l 0.60696,14.34264 q 0.0458,1.08301 0.39506,1.71334 0.34923,0.63033 1.24345,0.97369 0.477,0.18507 1.1589,0.36148 0.71117,0.17516 1.593,0.22582 l 0.0904,2.13676 z" />
      <path
         inkscape:connector-curvature="0"
         id="path7084"
         style="fill:#000000;fill-opacity:1;stroke:#f20000;stroke-width:3;stroke-miterlimit:4;stroke-dasharray:none;stroke-opacity:1"
         d="m 472.16748,797.18132 -14.06495,3.39262 -0.50511,-0.3259 -0.47706,-2.65276 -0.21221,-0.0214 q -1.13805,1.7823 -3.35272,3.37125 -2.19102,1.55493 -4.64193,1.99569 -5.82454,1.04746 -10.37965,-2.5984 -4.55511,-3.64586 -5.78924,-10.50843 -1.09413,-6.08404 2.33269,-11.19509 3.45564,-5.11625 9.45318,-6.19481 2.36442,-0.42521 4.53901,-0.25071 2.16941,0.14567 3.53892,0.64355 l -1.69563,-9.42882 q -0.19186,-1.06687 -0.79031,-1.91179 -0.60364,-0.87375 -1.41783,-1.26313 -1.00795,-0.47361 -2.40983,-0.4894 -1.37823,-0.0498 -2.75419,0.0786 l -0.37853,-2.1049 15.43571,-3.54983 0.51548,0.38357 6.7981,37.8018 q 0.19705,1.09571 0.67788,1.78317 0.50967,0.68229 1.39481,0.96961 0.66256,0.20828 1.84186,0.14504 1.20813,-0.0684 1.96301,-0.17442 l 0.37854,2.1049 z m -15.62851,-2.48794 -2.92977,-16.29139 q -0.32111,-0.62689 -0.84114,-1.36684 -0.49121,-0.74514 -1.2552,-1.35192 -0.68558,-0.50181 -1.74891,-0.78685 -1.0345,-0.29023 -2.24555,-0.0725 -2.88343,0.51855 -4.14287,4.10869 -1.25944,3.59015 -0.19125,9.53002 0.42002,2.33558 1.07425,4.15277 0.67788,1.78317 1.78891,3.16101 1.11102,1.37785 2.56413,2.00953 1.48194,0.6265 3.32734,0.29463 1.75889,-0.31631 2.793,-1.18691 1.02892,-0.89944 1.80706,-2.20029 z" />
      <path
         inkscape:connector-curvature="0"
         id="path7086"
         style="fill:#000000;fill-opacity:1;stroke:#f20000;stroke-width:3;stroke-miterlimit:4;stroke-dasharray:none;stroke-opacity:1"
         d="m 505.8824,787.77263 q -3.56174,1.34885 -6.98974,1.64456 -3.4006,0.28534 -5.99418,-0.11087 l -1.16416,2.63379 -2.32883,0.88193 -5.67891,-13.9203 2.35623,-0.89231 q 1.55197,1.69916 3.62531,3.45149 2.07334,1.75234 4.35387,2.89365 2.36645,1.20275 4.85708,1.57529 2.51803,0.36216 5.28523,-0.68579 3.72614,-1.41109 5.014,-3.96641 1.30488,-2.59309 0.25694,-5.36029 -0.86119,-2.27404 -3.1409,-3.16504 -2.2627,-0.92877 -6.22245,-0.71362 -2.58157,0.13181 -4.76547,0.23833 -2.15651,0.0961 -4.1042,0.0819 -4.50933,-0.078 -7.52702,-2.25585 -2.99029,-2.18827 -4.3495,-5.77741 -0.86119,-2.27404 -0.66341,-4.72981 0.1874,-2.48317 1.44495,-4.87038 1.21685,-2.24648 3.66532,-4.30151 2.44847,-2.05502 5.76364,-3.31048 3.23296,-1.22433 6.39736,-1.3889 3.15402,-0.19196 5.1129,0.10001 l 1.04874,-2.2768 2.38362,-0.90268 5.24103,13.17764 -2.35623,0.89231 q -1.63125,-1.82578 -3.595,-3.61961 -1.94673,-1.83161 -3.73993,-2.8442 -1.94429,-1.08068 -4.05054,-1.34817 -2.11662,-0.29488 -4.47285,0.59743 -2.95899,1.12057 -4.21654,3.50778 -1.23014,2.37682 -0.29633,4.84264 0.88193,2.32884 3.0587,3.19616 2.20417,0.85696 6.08173,0.67294 2.28685,-0.0829 4.65589,-0.19683 2.36904,-0.11398 4.25156,-0.10637 4.55375,0.0298 7.6358,1.96405 3.09907,1.89645 4.61392,5.89656 0.95456,2.52062 0.66876,5.323 -0.28581,2.80239 -1.69445,5.1215 -1.53817,2.55613 -4.06219,4.57712 -2.52402,2.02098 -6.35975,3.47357 z" />
      <path
         inkscape:connector-curvature="0"
         id="path7088"
         style="fill:#000000;fill-opacity:1;stroke:#f20000;stroke-width:3;stroke-miterlimit:4;stroke-dasharray:none;stroke-opacity:1"
         d="m 549.86786,749.53012 q 2.93483,5.44054 1.39949,11.29519 -1.53534,5.85466 -7.1048,8.85903 -2.47532,1.33528 -4.30057,1.65414 -1.81135,0.34464 -3.2064,0.16513 l -0.20628,0.11128 3.90847,7.24545 q 0.48682,0.90246 1.23523,1.36422 0.77419,0.44785 1.66307,0.36781 0.84918,-0.0919 2.23781,-0.5414 1.41441,-0.4634 2.29311,-0.87083 l 1.02928,1.90805 -18.61644,10.04241 -1.02927,-1.90805 q 0.61679,-0.3993 1.51315,-1.08256 0.91026,-0.65747 1.31672,-1.07645 0.6721,-0.72872 0.58018,-1.57791 -0.0522,-0.8373 -0.52513,-1.71398 l -14.22906,-26.37758 q -0.53636,-0.80916 -1.21929,-1.27296 -0.65714,-0.4777 -1.6176,-0.59206 -0.69651,-0.057 -1.65867,0.19571 -0.97607,0.22694 -1.8429,0.59468 l -1.01537,-1.88227 12.19543,-7.44416 0.56759,0.12656 1.54391,2.86209 0.2341,-0.0597 q 0.76987,-2.64556 2.31799,-4.71232 1.57391,-2.08067 3.61089,-3.1795 5.3374,-2.87919 10.47619,-0.75796 5.12488,2.09544 8.44917,8.25795 z m -9.20102,5.09652 q -1.04318,-1.93384 -2.27264,-3.53419 -1.24336,-1.62613 -2.71642,-2.62904 -1.44728,-1.01682 -3.05267,-1.21601 -1.57961,-0.2131 -3.22983,0.67708 -1.67599,0.9041 -2.36168,2.0396 -0.69959,1.10972 -0.94661,2.44132 l 7.88648,14.61984 q 0.43289,0.43223 1.31632,1.02088 0.86952,0.56287 1.57214,0.81632 1.02016,0.34845 2.02608,0.23856 1.00592,-0.10989 1.98574,-0.63844 2.55267,-1.37701 2.59958,-4.93081 0.0588,-3.59349 -2.80649,-8.90511 z" />
      <path
         inkscape:connector-curvature="0"
         id="path7090"
         style="fill:#000000;fill-opacity:1;stroke:#f20000;stroke-width:3;stroke-miterlimit:4;stroke-dasharray:none;stroke-opacity:1"
         d="m 574.99485,749.30596 -15.31299,10.40867 -1.20227,-1.76874 q 0.59703,-0.47667 1.15335,-0.96109 0.55633,-0.48443 0.87717,-0.95048 0.57771,-0.81778 0.53037,-1.56493 -0.0638,-0.77137 -0.67319,-1.66786 L 550.78209,738.7 q -0.57643,-0.84803 -1.39231,-1.21448 -0.83234,-0.39069 -1.67736,-0.38309 -0.63376,0.006 -1.71141,0.34854 -1.05343,0.32637 -1.82972,0.74777 l -1.20226,-1.76875 11.44421,-8.69998 0.61048,0.1164 13.07672,19.23816 q 0.57643,0.84803 1.35161,1.20673 0.75871,0.33446 1.63477,0.16407 0.63281,-0.11132 1.3296,-0.33698 0.69679,-0.22566 1.37617,-0.58118 l 1.20226,1.76875 z m -26.00179,-30.6444 q 1.25168,1.84143 0.71149,4.12152 -0.53242,2.23938 -2.47078,3.55694 -1.96258,1.33402 -4.265,1.02156 -2.29465,-0.35316 -3.54633,-2.1946 -1.25168,-1.84144 -0.73572,-4.10505 0.54019,-2.28009 2.50277,-3.61411 1.96259,-1.33402 4.25724,-0.98086 2.29466,0.35316 3.54633,2.1946 z" />
      <path
         inkscape:connector-curvature="0"
         id="path7092"
         style="fill:#000000;fill-opacity:1;stroke:#f20000;stroke-width:3;stroke-miterlimit:4;stroke-dasharray:none;stroke-opacity:1"
         d="m 584.90742,711.02335 q 1.40732,1.72541 1.4143,3.91248 -0.0115,2.16437 -1.75965,3.59021 -1.6573,1.35177 -3.50028,1.45615 -1.82028,0.0859 -3.15353,-1.54873 -0.64811,-0.79459 -0.88642,-1.31853 -0.25684,-0.54664 -0.48082,-1.00666 -1.00729,0.89721 -1.60961,2.52267 -0.60232,1.62547 -0.56186,3.48279 l 10.16604,12.4638 q 0.6481,0.79459 1.32373,1.11306 0.67563,0.31848 1.50663,0.13216 0.70315,-0.15765 1.96372,-0.88338 1.26476,-0.76695 1.78274,-1.15163 l 1.35177,1.6573 -15.18813,12.38812 -1.35177,-1.6573 q 0.53053,-0.50834 1.04255,-1.03938 0.5162,-0.57227 0.81375,-1.04179 0.52279,-0.84229 0.36933,-1.58666 -0.15347,-0.74437 -0.83861,-1.58437 l -10.77711,-13.213 q -0.66663,-0.81729 -1.57106,-1.13818 -0.92295,-0.34358 -1.78261,-0.28511 -0.63086,0.0609 -1.41467,0.39775 -0.76111,0.31834 -1.56586,0.86131 l -1.35176,-1.6573 10.34775,-9.42306 0.6183,0.0628 2.68502,3.2919 0.0908,-0.0741 q 0.0851,-3.09392 0.99993,-5.54138 0.91901,-2.48868 2.82604,-4.04414 2.11135,-1.72211 4.45672,-1.44233 2.34954,0.23857 4.03462,2.30452 z" />
      <path
         inkscape:connector-curvature="0"
         id="path7094"
         style="fill:#000000;fill-opacity:1;stroke:#f20000;stroke-width:3;stroke-miterlimit:4;stroke-dasharray:none;stroke-opacity:1"
         d="m 614.48212,714.94502 -13.2782,12.90418 -1.49051,-1.53371 q 0.50542,-0.57289 0.96941,-1.14637 0.46399,-0.57348 0.69924,-1.08807 0.4273,-0.9055 0.25123,-1.63315 -0.19649,-0.74866 -0.95196,-1.52602 l -11.88327,-12.22771 q -0.71463,-0.73534 -1.58166,-0.95491 -0.88744,-0.24058 -1.71837,-0.0867 -0.62319,0.11541 -1.62515,0.63976 -0.98095,0.50395 -1.6725,1.05346 l -1.49051,-1.53372 9.76394,-10.55108 0.62141,0.009 16.2119,16.68179 q 0.71463,0.73534 1.54023,0.95432 0.80517,0.19796 1.63847,-0.12162 0.60395,-0.21928 1.25112,-0.56224 0.64716,-0.34296 1.25467,-0.8108 l 1.49051,1.53371 z m -30.91759,-25.67635 q 1.55177,1.59675 1.41476,3.93594 -0.13641,2.29776 -1.8172,3.9312 -1.70179,1.65386 -4.02353,1.74501 -2.32114,0.0497 -3.87291,-1.54704 -1.55176,-1.59674 -1.43577,-3.91551 0.13701,-2.3392 1.8388,-3.99306 1.7018,-1.65385 4.02294,-1.70357 2.32114,-0.0497 3.87291,1.54703 z" />
      <path
         inkscape:connector-curvature="0"
         id="path7096"
         style="fill:#000000;fill-opacity:1;stroke:#f20000;stroke-width:3;stroke-miterlimit:4;stroke-dasharray:none;stroke-opacity:1"
         d="m 629.79598,695.78448 q -0.62741,1.94804 -1.56117,3.97719 -0.91181,2.04855 -2.94942,4.35311 -3.0273,3.42392 -6.1702,3.61715 -3.12349,0.17128 -6.21819,-2.56494 l -13.4762,-11.91513 -3.49303,3.95068 -2.37041,-2.09582 3.57066,-4.03847 -6.65031,-5.87995 6.30687,-7.13316 6.65031,5.87994 5.43361,-6.1455 2.37041,2.09582 -5.3948,6.10161 12.02761,10.63435 q 2.56794,2.27047 4.26439,2.51901 1.71585,0.22659 3.34594,-1.61706 0.52395,-0.5926 1.36763,-1.72373 0.84369,-1.13114 1.10266,-1.64519 l 1.84364,1.63009 z" />
    </g>
  </g>
</svg>
